<svg width="1481" height="159" viewBox="0 0 1481 159" fill="none" xmlns="http://www.w3.org/2000/svg">
<path d="M40.9104 127.568C33.591 127.568 26.5765 126.61 19.867 124.693C13.1576 122.689 7.75512 120.118 3.65972 116.981L10.8485 101.035C14.7696 103.824 19.3878 106.133 24.7031 107.963C30.1055 109.706 35.5516 110.577 41.0411 110.577C45.2237 110.577 48.5784 110.185 51.1054 109.401C53.7194 108.529 55.6364 107.353 56.8563 105.872C58.0762 104.39 58.6862 102.691 58.6862 100.774C58.6862 98.3343 57.7277 96.4173 55.8107 95.0231C53.8937 93.5418 51.3668 92.3654 48.2299 91.4941C45.093 90.5356 41.6075 89.6642 37.7735 88.88C34.0267 88.0086 30.2362 86.963 26.4023 85.7431C22.6554 84.5232 19.2135 82.9547 16.0766 81.0377C12.9397 79.1207 10.3692 76.5938 8.36507 73.4569C6.44808 70.32 5.48958 66.3117 5.48958 61.4321C5.48958 56.2039 6.88376 51.455 9.67211 47.1853C12.5476 42.8285 16.8173 39.3867 22.4811 36.8597C28.2321 34.2456 35.4208 32.9386 44.0473 32.9386C49.7983 32.9386 55.4622 33.6357 61.0389 35.0299C66.6156 36.3369 71.5388 38.341 75.8085 41.0422L69.2732 57.1189C65.0036 54.6791 60.7339 52.8928 56.4642 51.76C52.1946 50.5401 48.012 49.9301 43.9166 49.9301C39.8212 49.9301 36.4665 50.4094 33.8524 51.3679C31.2383 52.3264 29.3649 53.5899 28.2321 55.1583C27.0993 56.6396 26.533 58.3823 26.533 60.3865C26.533 62.7392 27.4915 64.6561 29.4085 66.1375C31.3254 67.5316 33.8524 68.6644 36.9893 69.5358C40.1262 70.4071 43.5681 71.2785 47.3149 72.1499C51.1489 73.0212 54.9393 74.0233 58.6862 75.1561C62.5202 76.2888 66.0056 77.8137 69.1425 79.7307C72.2794 81.6477 74.8064 84.1746 76.7234 87.3115C78.7275 90.4484 79.7296 94.4131 79.7296 99.2056C79.7296 104.347 78.2918 109.052 75.4163 113.322C72.5408 117.591 68.2276 121.033 62.4766 123.647C56.8128 126.261 49.624 127.568 40.9104 127.568ZM116.156 126L86.225 34.507H108.183L134.193 115.544H123.214L150.401 34.507H170.006L196.147 115.544H185.56L212.224 34.507H232.483L202.552 126H179.809L156.675 54.8969H162.687L138.899 126H116.156ZM229.215 126L269.995 34.507H290.908L331.818 126H309.598L276.138 45.2248H284.503L250.912 126H229.215ZM249.605 106.394L255.226 90.3177H302.279L308.03 106.394H249.605ZM384.212 127.568C376.98 127.568 370.314 126.436 364.214 124.17C358.202 121.817 352.93 118.506 348.399 114.237C343.955 109.967 340.47 104.957 337.943 99.2056C335.503 93.4546 334.283 87.1373 334.283 80.2535C334.283 73.3698 335.503 67.0524 337.943 61.3014C340.47 55.5504 343.999 50.5401 348.53 46.2704C353.061 42.0007 358.376 38.7331 364.476 36.4676C370.575 34.1149 377.285 32.9386 384.604 32.9386C392.708 32.9386 399.984 34.2892 406.432 36.9904C412.967 39.6916 418.457 43.6128 422.901 48.7538L409.307 61.3014C405.996 57.816 402.38 55.2454 398.459 53.5899C394.538 51.8471 390.268 50.9758 385.65 50.9758C381.206 50.9758 377.154 51.6729 373.494 53.067C369.835 54.4612 366.654 56.4653 363.953 59.0794C361.339 61.6935 359.291 64.7869 357.81 68.3594C356.416 71.932 355.719 75.8967 355.719 80.2535C355.719 84.5232 356.416 88.4443 357.81 92.0169C359.291 95.5895 361.339 98.7264 363.953 101.428C366.654 104.042 369.791 106.046 373.364 107.44C377.023 108.834 381.032 109.531 385.389 109.531C389.571 109.531 393.623 108.878 397.544 107.571C401.552 106.177 405.43 103.867 409.177 100.643L421.202 115.936C416.235 119.683 410.44 122.558 403.818 124.562C397.283 126.566 390.747 127.568 384.212 127.568ZM401.857 113.191V78.8158H421.202V115.936L401.857 113.191ZM485.048 127.568C477.816 127.568 471.15 126.436 465.051 124.17C459.038 121.817 453.767 118.506 449.236 114.237C444.792 109.967 441.306 104.957 438.779 99.2056C436.339 93.4546 435.119 87.1373 435.119 80.2535C435.119 73.3698 436.339 67.0524 438.779 61.3014C441.306 55.5504 444.835 50.5401 449.366 46.2704C453.897 42.0007 459.213 38.7331 465.312 36.4676C471.412 34.1149 478.121 32.9386 485.441 32.9386C493.544 32.9386 500.82 34.2892 507.268 36.9904C513.803 39.6916 519.293 43.6128 523.737 48.7538L510.144 61.3014C506.833 57.816 503.216 55.2454 499.295 53.5899C495.374 51.8471 491.104 50.9758 486.486 50.9758C482.042 50.9758 477.99 51.6729 474.331 53.067C470.671 54.4612 467.491 56.4653 464.789 59.0794C462.175 61.6935 460.128 64.7869 458.646 68.3594C457.252 71.932 456.555 75.8967 456.555 80.2535C456.555 84.5232 457.252 88.4443 458.646 92.0169C460.128 95.5895 462.175 98.7264 464.789 101.428C467.491 104.042 470.627 106.046 474.2 107.44C477.86 108.834 481.868 109.531 486.225 109.531C490.407 109.531 494.459 108.878 498.38 107.571C502.389 106.177 506.266 103.867 510.013 100.643L522.038 115.936C517.071 119.683 511.276 122.558 504.654 124.562C498.119 126.566 491.584 127.568 485.048 127.568ZM502.694 113.191V78.8158H522.038V115.936L502.694 113.191ZM561.182 71.3656H605.229V87.8344H561.182V71.3656ZM562.75 109.008H612.548V126H541.707V34.507H610.849V51.4986H562.75V109.008ZM629.396 126V34.507H668.999C677.19 34.507 684.248 35.8576 690.173 38.5589C696.099 41.173 700.673 44.9634 703.897 49.9301C707.121 54.8969 708.733 60.8222 708.733 67.7059C708.733 74.5025 707.121 80.3842 703.897 85.351C700.673 90.2306 696.099 93.9775 690.173 96.5915C684.248 99.2056 677.19 100.513 668.999 100.513H641.159L650.57 91.2327V126H629.396ZM687.559 126L664.686 92.8011H687.298L710.433 126H687.559ZM650.57 93.5854L641.159 83.6518H667.823C674.358 83.6518 679.238 82.2577 682.462 79.4693C685.686 76.5938 687.298 72.6727 687.298 67.7059C687.298 62.652 685.686 58.7309 682.462 55.9425C679.238 53.1542 674.358 51.76 667.823 51.76H641.159L650.57 41.6958V93.5854ZM762.525 126V34.507H802.129C810.32 34.507 817.378 35.8576 823.303 38.5589C829.228 41.173 833.803 44.9634 837.027 49.9301C840.251 54.8969 841.863 60.8222 841.863 67.7059C841.863 74.5025 840.251 80.3842 837.027 85.351C833.803 90.3177 829.228 94.1517 823.303 96.853C817.378 99.467 810.32 100.774 802.129 100.774H774.289L783.699 91.2327V126H762.525ZM783.699 93.5854L774.289 83.5211H800.952C807.488 83.5211 812.367 82.1269 815.591 79.3386C818.815 76.5502 820.427 72.6727 820.427 67.7059C820.427 62.652 818.815 58.7309 815.591 55.9425C812.367 53.1542 807.488 51.76 800.952 51.76H774.289L783.699 41.6958V93.5854ZM856.98 126V34.507H896.583C904.774 34.507 911.832 35.8576 917.757 38.5589C923.682 41.173 928.257 44.9634 931.481 49.9301C934.705 54.8969 936.317 60.8222 936.317 67.7059C936.317 74.5025 934.705 80.3842 931.481 85.351C928.257 90.2306 923.682 93.9775 917.757 96.5915C911.832 99.2056 904.774 100.513 896.583 100.513H868.743L878.154 91.2327V126H856.98ZM915.143 126L892.27 92.8011H914.882L938.016 126H915.143ZM878.154 93.5854L868.743 83.6518H895.407C901.942 83.6518 906.821 82.2577 910.046 79.4693C913.27 76.5938 914.882 72.6727 914.882 67.7059C914.882 62.652 913.27 58.7309 910.046 55.9425C906.821 53.1542 901.942 51.76 895.407 51.76H868.743L878.154 41.6958V93.5854Z" fill="white"/>
<path d="M1088.44 126L1048.96 34.507H1071.84L1106.34 115.544H1092.88L1127.91 34.507H1148.95L1109.35 126H1088.44ZM1156.59 126V34.507H1177.77V126H1156.59ZM1199.48 126V34.507H1241.04C1250.98 34.507 1259.73 36.424 1267.32 40.258C1274.9 44.0049 1280.82 49.2766 1285.09 56.0732C1289.36 62.8699 1291.5 70.93 1291.5 80.2535C1291.5 89.49 1289.36 97.55 1285.09 104.434C1280.82 111.23 1274.9 116.546 1267.32 120.38C1259.73 124.127 1250.98 126 1241.04 126H1199.48ZM1220.65 108.616H1240C1246.1 108.616 1251.37 107.484 1255.81 105.218C1260.34 102.865 1263.83 99.5542 1266.27 95.2845C1268.8 91.0148 1270.06 86.0045 1270.06 80.2535C1270.06 74.4154 1268.8 69.4051 1266.27 65.2225C1263.83 60.9529 1260.34 57.6853 1255.81 55.4197C1251.37 53.067 1246.1 51.8907 1240 51.8907H1220.65V108.616ZM1326.94 71.3656H1370.99V87.8344H1326.94V71.3656ZM1328.51 109.008H1378.31V126H1307.46V34.507H1376.61V51.4986H1328.51V109.008ZM1395.15 126V34.507H1434.76C1442.95 34.507 1450.01 35.8576 1455.93 38.5589C1461.86 41.173 1466.43 44.9634 1469.65 49.9301C1472.88 54.8969 1474.49 60.8222 1474.49 67.7059C1474.49 74.5025 1472.88 80.3842 1469.65 85.351C1466.43 90.2306 1461.86 93.9775 1455.93 96.5915C1450.01 99.2056 1442.95 100.513 1434.76 100.513H1406.92L1416.33 91.2327V126H1395.15ZM1453.32 126L1430.44 92.8011H1453.06L1476.19 126H1453.32ZM1416.33 93.5854L1406.92 83.6518H1433.58C1440.12 83.6518 1444.99 82.2577 1448.22 79.4693C1451.44 76.5938 1453.06 72.6727 1453.06 67.7059C1453.06 62.652 1451.44 58.7309 1448.22 55.9425C1444.99 53.1542 1440.12 51.76 1433.58 51.76H1406.92L1416.33 41.6958V93.5854Z" fill="white"/>
<path fill-rule="evenodd" clip-rule="evenodd" d="M985.247 61.5737V31.5488H1007.4V61.5737L1035.09 45.5861L1046.17 64.7712L1018.48 80.7587L1046.06 96.6857L1034.99 115.871L1007.4 99.9438V129.613H985.247V99.9438L957.66 115.871L946.584 96.6857L974.17 80.7587L946.479 64.7712L957.555 45.5861L985.247 61.5737Z" fill="#33D3D4"/>
</svg>
